<svg version="1.2" xmlns="http://www.w3.org/2000/svg" viewBox="0 0 900 900" width="900" height="900">
	<title>693-ai</title>
	<style>
		.s0 { fill: none;stroke: #716f82;stroke-width: 7 } 
		.s1 { fill: #072050 } 
		.s2 { fill: #747282 } 
		.s3 { fill: #2d2d3a } 
		.s4 { fill: #ffffff } 
		.s5 { fill: #a29fb0 } 
		.s6 { fill: #6e89c4 } 
		.s7 { fill: #ea5444 } 
		.s8 { fill: #ffc543 } 
		.s9 { fill: #a2cc3b } 
		.s10 { fill: #313d6e } 
		.s11 { fill: #678c6e } 
		.s12 { opacity: .5;mix-blend-mode: overlay;fill: #c5cbed } 
		.s13 { fill: #7c4b39 } 
		.s14 { fill: #fcbba4 } 
		.s15 { fill: #ffc7b0 } 
		.s16 { fill: #081344 } 
		.s17 { opacity: .2;fill: #081344 } 
		.s18 { fill: #716f82 } 
		.s19 { fill: #b1aec1 } 
		.s20 { fill: #585668 } 
		.s21 { fill: #dddddd } 
		.s22 { fill: #767684 } 
		.s23 { fill: #1f3468 } 
		.s24 { fill: #aba9c4 } 
		.s25 { fill: #4a4960 } 
		.s26 { fill: #e79271 } 
		.s27 { fill: #a5483c } 
		.s28 { fill: #84352f } 
		.s29 { fill: #7f3954 } 
		.s30 { fill: #6e3856 } 
		.s31 { fill: #df7d54 } 
		.s32 { fill: none;stroke: #081344;stroke-linecap: round;stroke-width: 1.5 } 
		.s33 { fill: #1c1c2d } 
		.s34 { fill: #a0523a } 
		.s35 { fill: #25253a } 
		.s36 { fill: #9f293b } 
		.s37 { fill: #f14747 } 
		.s38 { opacity: .3;mix-blend-mode: multiply;fill: #25253a } 
		.s39 { fill: #eceef0 } 
		.s40 { opacity: .5;mix-blend-mode: overlay;fill: #cdd6f9 } 
		.s41 { fill: #fc4f42 } 
		.s42 { opacity: .8;fill: #ce2d29 } 
		.s43 { fill: #6075b0 } 
		.s44 { fill: #794061 } 
		.s45 { fill: #072859 } 
		.s46 { fill: #f3885e } 
		.s47 { fill: #ffbe62 } 
		.s48 { fill: #fbaf3d } 
		.s49 { fill: #ffd72e } 
		.s50 { fill: #f38154 } 
		.s51 { fill: #709b2c } 
		.s52 { fill: #4c842f } 
		.s53 { fill: none;stroke: #081344;stroke-width: 4.6 } 
		.s54 { fill: #517f38 } 
		.s55 { fill: #3b6837 } 
		.s56 { fill: #65b15b } 
		.s57 { fill: #62324a } 
	</style>
	<g id="Layer 1">
		<path id="&lt;Path&gt;" class="s0" d="m63.7 705.3h779.9"/>
		<g id="&lt;Group&gt;">
			<path id="&lt;Path&gt;" class="s1" d="m176.6 302.2h66.1v142.3h-66.1z"/>
			<g id="&lt;Group&gt;">
				<path id="&lt;Path&gt;" class="s2" d="m103.1 257.7c0-4.8 3.9-8.7 8.7-8.7h194.7c4.8 0 8.6 3.9 8.6 8.7v136.9h-212z"/>
				<path id="&lt;Path&gt;" class="s2" d="m105.1 397.5v-7h212v7c0 10.1-8.2 18.3-18.3 18.3h-175.3c-10.2 0-18.4-8.2-18.4-18.3z"/>
				<path id="&lt;Path&gt;" class="s3" d="m322.6 257.6v137l-52.1-0.9-54.4-0.8-17.2-0.3-55.1-0.9-33.3-0.5v-133.6c0-4.7 3.9-8.6 8.7-8.6h194.7c4.8 0 8.7 3.9 8.7 8.6z"/>
				<path id="&lt;Path&gt;" class="s4" d="m119.3 260.7h194.5c0.5 0 0.8 0.4 0.8 0.8v120.8c0 0.5-0.3 0.8-0.8 0.8h-194.5c-0.5 0-0.9-0.3-0.9-0.8v-120.8c0-0.4 0.4-0.8 0.9-0.8z"/>
				<path id="&lt;Path&gt;" class="s5" d="m110.6 397.5v-7h211.9v7c0 10.1-8.2 18.3-18.3 18.3h-175.3c-10.1 0-18.3-8.2-18.3-18.3z"/>
			</g>
			<path id="&lt;Path&gt;" class="s5" d="m170 440.1c0-2.7 2.2-4.9 4.9-4.9h88.6c2.7 0 4.9 2.2 4.9 4.9 0 2.7-2.2 4.9-4.9 4.9h-88.6c-2.7 0-4.9-2.2-4.9-4.9z"/>
			<g id="&lt;Group&gt;">
				<path id="&lt;Path&gt;" class="s6" d="m305.3 282h-174.3c-1.4 0-2.6-1.2-2.6-2.7v-10.1c0-1.5 1.2-2.7 2.6-2.7h174.3c1.5 0 2.7 1.2 2.7 2.7v10.1c0 1.5-1.2 2.7-2.7 2.7z"/>
				<g id="&lt;Group&gt;">
					<g id="&lt;Group&gt;">
						<path id="&lt;Path&gt;" class="s7" d="m142 274c0 1.9-1.5 3.4-3.3 3.4-1.8 0-3.3-1.5-3.3-3.4 0-1.8 1.5-3.3 3.3-3.3 1.8 0 3.3 1.5 3.3 3.3z"/>
					</g>
				</g>
				<g id="&lt;Group&gt;">
					<g id="&lt;Group&gt;">
						<path id="&lt;Path&gt;" class="s8" d="m154 274c0 1.9-1.5 3.4-3.3 3.4-1.8 0-3.3-1.5-3.3-3.4 0-1.8 1.5-3.3 3.3-3.3 1.8 0 3.3 1.5 3.3 3.3z"/>
					</g>
				</g>
				<g id="&lt;Group&gt;">
					<g id="&lt;Group&gt;">
						<path id="&lt;Path&gt;" class="s9" d="m166 274c0 1.9-1.5 3.4-3.3 3.4-1.8 0-3.3-1.5-3.3-3.4 0-1.8 1.5-3.3 3.3-3.3 1.8 0 3.3 1.5 3.3 3.3z"/>
					</g>
				</g>
				<path id="&lt;Path&gt;" class="s10" d="m187.8 309h-58.3c-0.8 0-1.5-0.7-1.5-1.5v-17.8c0-0.9 0.7-1.6 1.5-1.6h58.3c0.9 0 1.6 0.7 1.6 1.6v17.8c0 0.8-0.7 1.5-1.6 1.5z"/>
				<path id="&lt;Path&gt;" class="s11" d="m259.3 335.5h-58.3c-0.8 0-1.6-0.7-1.6-1.6v-17.8c0-0.8 0.8-1.6 1.6-1.6h58.3c0.9 0 1.6 0.8 1.6 1.6v17.8c0 0.9-0.7 1.6-1.6 1.6z"/>
				<path id="&lt;Path&gt;" class="s11" d="m306.4 309h-35.2c-0.9 0-1.6-0.7-1.6-1.5v-17.8c0-0.9 0.7-1.6 1.6-1.6h35.2c0.9 0 1.6 0.7 1.6 1.6v17.8c0 0.8-0.7 1.5-1.6 1.5z"/>
				<path id="&lt;Path&gt;" class="s7" d="m306.4 335.9h-35.2c-0.9 0-1.6-0.7-1.6-1.6v-17.8c0-0.8 0.7-1.5 1.6-1.5h35.2c0.9 0 1.6 0.7 1.6 1.5v17.8c0 0.9-0.7 1.6-1.6 1.6z"/>
				<g id="&lt;Group&gt;">
					<path id="&lt;Path&gt;" class="s1" d="m261.3 306.4h-61.4v-1.5h61.4z"/>
					<path id="&lt;Path&gt;" class="s1" d="m261.3 301h-61.4v-1.5h61.4z"/>
					<path id="&lt;Path&gt;" class="s1" d="m261.3 295.7h-61.4v-1.5h61.4z"/>
					<path id="&lt;Path&gt;" class="s1" d="m261.3 290.3h-61.4v-1.5h61.4z"/>
				</g>
				<path id="&lt;Path&gt;" class="s7" d="m187.8 361.5h-58.3c-0.8 0-1.5-0.7-1.5-1.6v-17.7c0-0.9 0.7-1.6 1.5-1.6h58.3c0.9 0 1.6 0.7 1.6 1.6v17.7c0 0.9-0.7 1.6-1.6 1.6z"/>
				<g id="&lt;Group&gt;">
					<path id="&lt;Path&gt;" class="s1" d="m261.3 358.8h-61.4v-1.5h61.4z"/>
					<path id="&lt;Path&gt;" class="s1" d="m261.3 353.5h-61.4v-1.5h61.4z"/>
					<path id="&lt;Path&gt;" class="s1" d="m261.3 348.1h-61.4v-1.5h61.4z"/>
					<path id="&lt;Path&gt;" class="s1" d="m261.3 342.8h-61.4v-1.5h61.4z"/>
				</g>
				<g id="&lt;Group&gt;">
					<path id="&lt;Path&gt;" class="s1" d="m189.1 332h-61.4v-1.5h61.4z"/>
					<path id="&lt;Path&gt;" class="s1" d="m189.1 326.6h-61.4v-1.5h61.4z"/>
					<path id="&lt;Path&gt;" class="s1" d="m189.1 321.3h-61.4v-1.5h61.4z"/>
					<path id="&lt;Path&gt;" class="s1" d="m189.1 316h-61.4v-1.5h61.4z"/>
				</g>
			</g>
			<path id="&lt;Path&gt;" class="s12" d="m281.8 249l-65.7 141.7h-72.3l65.2-141.7z"/>
		</g>
		<g id="&lt;Group&gt;">
			<path id="&lt;Path&gt;" class="s13" d="m329.4 178.4l13.5 8.4c9.9 6.1 13.4 18.7 8.1 29.1-1 2-1.7 3.3-1.5 3.2 0.5-0.6-20.8-40.5-20.8-40.5"/>
			<path id="&lt;Path&gt;" class="s14" d="m294 308.3h-7c-6.4 0-11.7-5.3-11.7-11.7v-33c0-6.5 5.3-11.8 11.7-11.8h7c6.5 0 11.7 5.3 11.7 11.8v33c0 6.4-5.2 11.7-11.7 11.7z"/>
			<path id="&lt;Path&gt;" class="s13" d="m349.2 219.1c0.3 2.6-12.1 7.1-12.3 9.9l2.1 5.7c-15.3-5.6-1.8 2.9-1.8 2.9-4.6 13.5-3 20.9-16 26.1-6.5 2.5-13.5 3.7-20.9 3.2-10-0.7-18.8 2.4-26-1.1q-2.2-1-4.2-3c-2.5-2.5-4.8-5.3-6.7-8.3-0.7-1.2-1.4-2.4-2.1-3.6-3.9-7.6-11.9-29.8-11.3-38.9 1.8-25.7 26.5-42.9 54.8-40.9 0.7 0 1.5 0 2.2 0.1 15.3 1 28.4 9.1 36.4 20.9q0.6 1 1.2 2 0 0 0 0c2.3 3.7 3.5 19.8 3.5 19.8q0.8 2.5 1.1 5.2z"/>
			<path id="&lt;Path&gt;" class="s15" d="m348.1 227.3l-0.4 7.1-0.6 11.7-0.9 4.1c-0.1 1.8-1 11.5-1.4 13.3-3.2 16.5-14.1 20.1-31 22.2q-0.7 0.1-1.5 0.1c-1.8 0.2-3.6 0.2-5.5 0.1q-2.7-0.1-5.3-0.6c-3.3-0.6-6.6-1.7-9.6-3.1q0 0 0 0c-7.5-3.6-13.6-9.3-17.6-16.4-3-5.3-4.8-11.4-5-17.8q0-0.7 0-1.3 0-0.8 0-1.6v-0.3l0.1-1.3 0.2-3.3 0.5-11.5v-0.1l0.1-2.2 0.1-1.6 0.1-1.5v-0.4c0.2-2.7 0.7-5.3 1.5-7.7 0.5-1.7 1.2-3.4 1.9-5 0.1-0.3 0.2-0.5 0.3-0.8 0.6-1.3 1.3-2.6 2.1-3.8q0-0.1 0-0.1c2.8-4.7 6.6-8.8 11.1-12q1.4-0.9 2.8-1.8c6.6-3.8 14.3-5.9 22.5-5.5 6.8 0.4 11.8 2.4 17.2 5.7 3.3 2 6.3 4.4 8.9 7.2 3.7 4 6.1 8.7 7.8 13.9q0.2 0.4 0.3 0.9 0.8 2.5 1.1 5.2c0.3 2.6 0.3 5.4 0.2 8.2z"/>
			<path id="&lt;Path&gt;" class="s13" d="m333.8 192.3c8.3 22.8-13.5 21-14.5 31.4-0.1 1.2-0.5 2.9-0.8 11.5l-1.7 5.4c-0.5 1.7-2 2.8-3.8 2.8-2.1 0-3.9-1.7-3.9-3.9v-0.1l0.2-8.6-4.3 11.3c-3 8.1-7.7 15.5-13.5 21.7-4.9 5.1-10.6 9.4-17 12.7 0 0-26.5-15.8-26.5-51.8q0-4.3 0.5-9 0.5-4.2 1.4-7.9c11-44.8 66.1-29.5 71.4-27.5 5.6 2.1 12.5 12 12.5 12z"/>
			<path id="&lt;Path&gt;" class="s15" d="m352.8 251.5c0 0 0 0.6 0 0.6-0.1 2.4-2.2 4.4-7.5 4.2l0.7-19.2c4.3 6.5 6.4 10.3 6.8 14.4z"/>
			<path id="&lt;Path&gt;" class="s13" d="m349.9 228.2h-11.8c-1.3 0-2.5-1.2-2.5-2.5 0-1.4 1.2-2.5 2.5-2.5h11.8c1.4 0 2.5 1.1 2.5 2.5 0 1.3-1.1 2.5-2.5 2.5z"/>
			<path id="&lt;Path&gt;" class="s16" d="m343.3 237c-1 0-1.8-0.8-1.8-1.8v-2.6c0-0.9 0.8-1.7 1.8-1.7 1 0 1.8 0.8 1.8 1.7v2.6c0 1-0.8 1.8-1.8 1.8z"/>
			<path id="&lt;Path&gt;" class="s17" d="m291.5 263.8c-4.9 5.1-10.6 9.4-17 12.7 0 0-26.5-15.8-26.5-51.8q0-4.3 0.5-9 0.5-4.2 1.4-7.9c1.2 6.9 4.3 17.3 12.2 30.1 12 19.6 25.1 24.7 29.4 25.9z"/>
			<path id="&lt;Path&gt;" class="s13" d="m345.2 262.3l-0.4 13.5c0 11.4-13.6 16.1-23.7 15l-16.1-1.8 1.6-13.9 4.4-26.7-7.1-19.9 14.7 6-0.1 0.1c-1.1 15.8 10.3 28.6 26.2 27.9z"/>
			<path id="&lt;Path&gt;" class="s14" d="m308.1 228c1.7 0 3 1.3 3 2.9l-0.1 10.1-0.1 8.7h-3.4q-0.4 0-0.8 0c-5.7-0.5-10.3-5.5-10.2-11.3 0-3 1.2-5.5 3.3-7.5 1.8-1.7 4.2-2.7 6.9-2.9 0.3 0 0.6-0.1 0.9 0z"/>
			<g id="&lt;Group&gt;">
				<path id="&lt;Path&gt;" class="s16" d="m204.8 521.2h92.6v17.1h-92.6z"/>
				<path id="&lt;Path&gt;" class="s10" d="m173.2 680.5v6.5"/>
				<path id="&lt;Path&gt;" class="s18" d="m558.8 522.7h84.9v17h-84.9z"/>
				<path id="&lt;Path&gt;" class="s18" d="m649.3 705.1h-19.3v-240.5h19.3z"/>
				<path id="&lt;Path&gt;" class="s19" d="m571.8 705.1h-19.3v-242h19.3z"/>
				<path id="&lt;Path&gt;" class="s18" d="m571.8 556.6h-19.3v-103.2h19.3z"/>
				<path id="&lt;Path&gt;" class="s18" d="m96.2 522.7h84.8v17h-84.8z"/>
				<path id="&lt;Path&gt;" class="s18" d="m186.6 705.1h-19.3v-240.5h19.3z"/>
				<path id="&lt;Path&gt;" class="s18" d="m109.2 705.1h-19.3v-242h19.3z"/>
				<g id="&lt;Group&gt;">
					<path id="&lt;Path&gt;" class="s20" d="m510.5 440h-63.7v-136.9h63.7z"/>
					<g id="&lt;Group&gt;">
						<g id="&lt;Group&gt;">
							<path id="&lt;Path&gt;" class="s21" d="m578.2 395h-209.3v-127.8c0-4.6 3.7-8.3 8.3-8.3h192.7c4.6 0 8.3 3.7 8.3 8.3z"/>
							<path id="&lt;Path&gt;" class="s21" d="m558.5 415.5h-173.9c-9.8 0-17.7-7.9-17.7-17.6v-6.8h209.3v6.8c0 9.7-7.9 17.6-17.7 17.6z"/>
							<path id="&lt;Path&gt;" class="s22" d="m571 267.2v127.8h-209.3v-127.8c0-4.6 3.7-8.3 8.3-8.3h192.6c4.7 0 8.4 3.7 8.4 8.3z"/>
							<path id="&lt;Path&gt;" class="s23" d="m563.4 266.9v116.4c0 0.4-0.4 0.7-0.8 0.7h-192.5c-0.5 0-0.8-0.3-0.8-0.7v-116.4c0-0.4 0.3-0.7 0.8-0.7h192.5c0.4 0 0.8 0.3 0.8 0.7z"/>
							<path id="&lt;Path&gt;" class="s24" d="m571 391.1v6.8c0 7.1-4.2 13.2-10.2 16-2.3 1-4.8 1.6-7.5 1.6h-174c-9.7 0-17.6-7.9-17.6-17.6v-6.8z"/>
						</g>
						<g id="&lt;Group&gt;">
							<g id="&lt;Group&gt;">
								<path id="&lt;Path&gt;" class="s6" d="m445.6 282.8h-65.1v-2.3h65.1z"/>
								<path id="&lt;Path&gt;" class="s21" d="m504.5 282.8h-30.7v-2.3h30.7z"/>
								<path id="&lt;Path&gt;" class="s8" d="m549 282.8h-30.8v-2.3h30.8z"/>
								<path id="&lt;Path&gt;" class="s6" d="m514.6 282.8h-7.3v-2.3h7.3z"/>
								<path id="&lt;Path&gt;" class="s7" d="m470.2 282.8h-21.6v-2.3h21.6z"/>
							</g>
							<g id="&lt;Group&gt;">
								<path id="&lt;Path&gt;" class="s6" d="m445.6 340.4h-65.1v-2.2h65.1z"/>
								<path id="&lt;Path&gt;" class="s21" d="m504.5 340.4h-30.7v-2.2h30.7z"/>
								<path id="&lt;Path&gt;" class="s8" d="m549 340.4h-30.8v-2.2h30.8z"/>
								<path id="&lt;Path&gt;" class="s6" d="m514.6 340.4h-7.3v-2.2h7.3z"/>
								<path id="&lt;Path&gt;" class="s5" d="m470.2 340.4h-21.6v-2.2h21.6z"/>
							</g>
							<g id="&lt;Group&gt;">
								<path id="&lt;Path&gt;" class="s6" d="m484 319h65v2.2h-65z"/>
								<path id="&lt;Path&gt;" class="s21" d="m425 319h30.8v2.2h-30.8z"/>
								<path id="&lt;Path&gt;" class="s8" d="m380.5 319h30.8v2.2h-30.8z"/>
								<path id="&lt;Path&gt;" class="s6" d="m415 319h7.2v2.2h-7.2z"/>
								<path id="&lt;Path&gt;" class="s5" d="m459.3 319h21.6v2.2h-21.6z"/>
							</g>
							<g id="&lt;Group&gt;">
								<path id="&lt;Path&gt;" class="s7" d="m404.9 292.4h-24.4v-2.3h24.4z"/>
								<path id="&lt;Path&gt;" class="s6" d="m463.9 292.4h-10.5v-2.3h10.5z"/>
								<path id="&lt;Path&gt;" class="s21" d="m549 292.4h-51.1v-2.3h51.1z"/>
								<path id="&lt;Path&gt;" class="s6" d="m494.3 292.4h-27.7v-2.3h27.7z"/>
								<path id="&lt;Path&gt;" class="s6" d="m449.9 292.4h-41.9v-2.3h41.9z"/>
							</g>
							<g id="&lt;Group&gt;">
								<path id="&lt;Path&gt;" class="s6" d="m404.9 350h-24.4v-2.2h24.4z"/>
								<path id="&lt;Path&gt;" class="s6" d="m463.9 350h-10.5v-2.2h10.5z"/>
								<path id="&lt;Path&gt;" class="s6" d="m549 350h-51.1v-2.2h51.1z"/>
								<path id="&lt;Path&gt;" class="s6" d="m494.3 350h-27.7v-2.2h27.7z"/>
								<path id="&lt;Path&gt;" class="s6" d="m449.9 350h-41.9v-2.2h41.9z"/>
							</g>
							<g id="&lt;Group&gt;">
								<path id="&lt;Path&gt;" class="s7" d="m404.9 330.8h-24.4v-2.2h24.4z"/>
								<path id="&lt;Path&gt;" class="s6" d="m463.9 330.8h-10.5v-2.2h10.5z"/>
								<path id="&lt;Path&gt;" class="s21" d="m549 330.8h-51.1v-2.2h51.1z"/>
								<path id="&lt;Path&gt;" class="s6" d="m494.3 330.8h-27.7v-2.2h27.7z"/>
								<path id="&lt;Path&gt;" class="s6" d="m449.9 330.8h-41.9v-2.2h41.9z"/>
							</g>
							<g id="&lt;Group&gt;">
								<path id="&lt;Path&gt;" class="s21" d="m404.9 302h-24.4v-2.3h24.4z"/>
								<path id="&lt;Path&gt;" class="s6" d="m449.9 302h-41.9v-2.3h41.9z"/>
							</g>
							<g id="&lt;Group&gt;">
								<path id="&lt;Path&gt;" class="s21" d="m425.5 309.3h24.4v2.3h-24.4z"/>
								<path id="&lt;Path&gt;" class="s6" d="m380.5 309.3h41.9v2.3h-41.9z"/>
							</g>
						</g>
					</g>
					<path id="&lt;Path&gt;" class="s25" d="m509 443.6h-85.3c-2.7 0-4.8-2.1-4.8-4.7 0-2.6 2.1-4.7 4.8-4.7h85.3c2.6 0 4.8 2.1 4.8 4.7 0 2.6-2.2 4.7-4.8 4.7z"/>
				</g>
				<path id="&lt;Path&gt;" class="s26" d="m665.8 464.4h-269.1v-13.9c0-4.2 3.4-7.6 7.6-7.6h253.9c4.2 0 7.6 3.4 7.6 7.6z"/>
				<g id="&lt;Group&gt;">
					<path id="&lt;Path&gt;" class="s27" d="m587.3 450.5v13.9h-518.1v-13.9c0-4.2 3.4-7.6 7.7-7.6h502.8c4.2 0 7.6 3.4 7.6 7.6z"/>
					<path id="&lt;Path&gt;" class="s28" d="m437.4 442.9c-4.1 6.7-9 14.7-13.2 21.5h-126.7l1.7-21.5z"/>
				</g>
				<g id="&lt;Group&gt;">
					<path id="&lt;Path&gt;" class="s29" d="m692.7 538.2h133.2v166.9h-133.2z"/>
					<path id="&lt;Path&gt;" class="s30" d="m645.5 538.2h130.9v166.9h-130.9z"/>
					<g id="&lt;Group&gt;">
						<path id="&lt;Path&gt;" class="s31" d="m644 550.7h124.2v45.1h-124.2z"/>
						<path id="&lt;Path&gt;" class="s31" d="m644 603.7h124.2v45.1h-124.2z"/>
						<path id="&lt;Path&gt;" class="s31" d="m644 656.6h124.2v48.5h-124.2z"/>
					</g>
					<g id="&lt;Group&gt;">
						<path id="&lt;Path&gt;" class="s4" d="m681.1 573.3c0-1.4 1.1-2.4 2.4-2.4h31.1c1.3 0 2.4 1 2.4 2.4 0 1.3-1.1 2.4-2.4 2.4h-31.1c-1.3 0-2.4-1.1-2.4-2.4z"/>
						<path id="&lt;Path&gt;" class="s4" d="m679.9 625.9c0-1.4 1.1-2.5 2.4-2.5h31.1c1.3 0 2.4 1.1 2.4 2.5 0 1.3-1.1 2.4-2.4 2.4h-31.1c-1.3 0-2.4-1.1-2.4-2.4z"/>
						<path id="&lt;Path&gt;" class="s4" d="m679.9 678.5c0-1.4 1.1-2.5 2.4-2.5h31.1c1.3 0 2.4 1.1 2.4 2.5 0 1.3-1.1 2.4-2.4 2.4h-31.1c-1.3 0-2.4-1.1-2.4-2.4z"/>
					</g>
				</g>
				<g id="&lt;Group&gt;">
					<g id="&lt;Group&gt;">
						<path id="&lt;Path&gt;" class="s29" d="m342.2 692.3l33.6-0.5 30.7 11.1c2.7 1 4.5 3.5 4.4 6.4 0 3.7-3.1 6.7-6.8 6.6l-62.2-0.6z"/>
						<path id="&lt;Path&gt;" class="s16" d="m405.4 717.7l-63-0.2v-4.6l67.5 0.3c0 2.5-2 4.5-4.5 4.5z"/>
					</g>
					<g id="&lt;Group&gt;">
						<path id="&lt;Path&gt;" class="s32" d="m375 700.9l7.4-7.8"/>
						<path id="&lt;Path&gt;" class="s32" d="m380.4 703.2l7.3-7.8"/>
						<path id="&lt;Path&gt;" class="s32" d="m385.5 706.2l8.3-8.8"/>
					</g>
					<g id="&lt;Group&gt;">
						<path id="&lt;Path&gt;" class="s33" d="m339.8 694.8c3.6-60.6 2.7-116.7-2.1-128.1-4.8-7-42.6-22.3-80.4-24l17.7-38.6c49.5 2.5 85 21.1 97.3 42.4 5.3 8.9 9.8 27 7.4 88.9-1.3 32.4-2.9 57.7-2.9 57.7z"/>
					</g>
					<g id="&lt;Group&gt;">
						<path id="&lt;Path&gt;" class="s34" d="m397.5 693.8l33.6-0.6 30.7 11c2.7 1 4.5 3.5 4.5 6.4 0 3.7-3.1 6.7-6.8 6.6l-62.2-0.4z"/>
						<path id="&lt;Path&gt;" class="s16" d="m460.8 719h-64v-4.5h68.5c0 2.4-2.1 4.5-4.5 4.5z"/>
					</g>
					<g id="&lt;Group&gt;">
						<path id="&lt;Path&gt;" class="s32" d="m430.4 702.3l7.3-7.8"/>
						<path id="&lt;Path&gt;" class="s32" d="m435.7 704.6l7.3-7.8"/>
						<path id="&lt;Path&gt;" class="s32" d="m440.8 707.6l8.3-8.8"/>
					</g>
					<g id="&lt;Group&gt;">
						<path id="&lt;Path&gt;" class="s33" d="m395.1 694.8c3.6-60.6 2.6-116.7-2.1-128.1-4.9-7-42.6-22.3-80.4-24l17.7-38.6c49.5 2.5 84.9 21.1 97.3 42.4 5.2 8.9 9.8 27 7.3 88.9-1.3 32.4-2.9 57.7-2.9 57.7z"/>
					</g>
					<path id="&lt;Path&gt;" class="s33" d="m341.9 515.2c0 6.8-2.5 13.1-6.5 17.9-5.1 6.2-12.9 10.2-21.6 10.2h-47.2q-2.1 0-4.2-0.3c-3.4-0.5-6.7-1.6-9.6-3.3q-0.8-0.4-1.5-0.9c-7.7-5-12.8-13.7-12.8-23.6l0.9-14.9 101.6-0.9z"/>
					<g id="&lt;Group&gt;">
						<g id="&lt;Group&gt;">
							<g id="&lt;Group&gt;">
								<path id="&lt;Path&gt;" class="s14" d="m370.5 432.5c-0.2-1.7 1-3.4 2.8-3.7l24.3-3.9c1.8-0.3 3.4 0.9 3.7 2.7 0.3 1.8-0.9 3.5-2.7 3.8l-24.3 3.8c-1.8 0.3-3.5-0.9-3.8-2.7z"/>
								<path id="&lt;Path&gt;" class="s14" d="m378.3 439.1c-0.3-1.8 0.9-3.5 2.7-3.7l19.5-3.2c1.8-0.2 3.5 1 3.8 2.8 0.3 1.7-1 3.4-2.7 3.7l-19.6 3.1c-1.7 0.3-3.4-0.9-3.7-2.7z"/>
								<path id="&lt;Path&gt;" class="s14" d="m373.8 447.6c-0.3-1.7 0.9-3.4 2.7-3.7l23.1-3.7c1.8-0.3 3.5 0.9 3.8 2.7 0.2 1.8-1 3.5-2.8 3.8l-23.1 3.7c-1.8 0.2-3.4-1-3.7-2.8z"/>
							</g>
							<path id="&lt;Path&gt;" class="s14" d="m383.7 448.6c0 0-6.4 8.4-24.9 5.1-0.7-0.2-6.2-16.5-6.2-16.5l9.6-4.7c5-2.5 10.5-3.7 16.1-3.6 3.2 0 6.2 0.1 6.5 0.1z"/>
						</g>
						<path id="&lt;Path&gt;" class="s4" d="m370.5 455.6h-8.2v-26.7h8.2z"/>
					</g>
					<g id="&lt;Group&gt;">
						<path id="&lt;Path&gt;" class="s33" d="m308.4 458.5c-19.3 0-37-11.3-45.2-28.9l-0.4-0.9-25.3-77.4 31.2-10.2 24.7 75.4c2.9 5.6 8.8 9.2 15.2 9.1l53.8-0.5 0.4 32.8-53.9 0.6q-0.2 0-0.5 0z"/>
					</g>
					<g id="&lt;Group&gt;">
						<g id="&lt;Group&gt;">
							<path id="&lt;Path&gt;" class="s14" d="m486.9 431.5c1.2 2.2-0.4 5-3 4.9-11.9-0.3-37.7-0.6-38 0.9-0.1 0.7 2.6-22.5 2.6-22.5l10.7-0.2c5.5-0.1 11.1 1.1 16.1 3.6q0 0 0.1 0c3.7 1.8 6.7 4.8 8.7 8.4z"/>
						</g>
						<path id="&lt;Path&gt;" class="s4" d="m452.2 440.4h-10.2v-27.3h10.2z"/>
					</g>
					<g id="&lt;Group&gt;">
						<path id="&lt;Path&gt;" class="s35" d="m392.1 443.5c-19.4 0-37.1-11.3-45.2-28.9l-36.5-78.9 29.8-13.8 36.5 79c2.8 6 8.8 9.9 15.5 9.8l53.9-0.5 0.3 32.8-53.9 0.5q-0.2 0-0.4 0z"/>
					</g>
					<path id="&lt;Path&gt;" class="s35" d="m350.6 351.1l-0.6 69-0.8 87.8c0 0-1.9 2.1-7.5 5.1-4.9 2.5-12.6 5.8-24.4 8.8-13.6 3.6-32.9 4.1-49.3 3.7-18.2-0.4-32.9-2-32.9-2l0.4-172.4c0-24.2 17.5-44.4 40.7-48.5q4.1-0.7 8.5-0.7h16.6c27.2 0 49.3 22 49.3 49.2z"/>
					<g id="&lt;Group&gt;">
						<g id="&lt;Group&gt;">
							<path id="&lt;Path&gt;" class="s19" d="m290.4 577.4v95.4h-16.6v-95.4z"/>
							<path id="&lt;Path&gt;" class="s18" d="m290.4 583.5v14.1l-16.6 6.1v-20.9c4.4 0.2 12.4 0.5 16.6 0.7z"/>
						</g>
						<path id="&lt;Path&gt;" class="s3" d="m333.2 585.6h-99.5c-5.1 0-9.2-4.1-9.2-9.2 0-5.1 4.1-9.3 9.2-9.3h99.5c5.1 0 9.3 4.2 9.3 9.3 0 5.1-4.2 9.2-9.3 9.2z"/>
						<g id="&lt;Group&gt;">
							<g id="&lt;Group&gt;">
								<path id="&lt;Path&gt;" class="s3" d="m352.5 703.6h-10.4c0-11.7-10.1-21.3-22.5-21.3h-75.7c-12.4 0-22.5 9.6-22.5 21.3h-10.4c0-17.1 14.7-31.1 32.9-31.1h75.7c18.1 0 32.9 14 32.9 31.1z"/>
							</g>
							<path id="&lt;Path&gt;" class="s3" d="m294.1 672.8h-24.2v-15h24.2z"/>
						</g>
						<g id="&lt;Group&gt;">
							<path id="&lt;Path&gt;" class="s16" d="m224.4 713c0 4.5-3.9 8.2-8.6 8.2-4.8 0-8.7-3.7-8.7-8.2 0-4.5 3.9-8.1 8.7-8.1 4.7 0 8.6 3.6 8.6 8.1z"/>
							<path id="&lt;Path&gt;" class="s1" d="m228.2 712.3h-23.6v-2.1c0-6.1 4.9-11.1 11-11.1h1.6c6.1 0 11 5 11 11.1z"/>
							<path id="&lt;Path&gt;" class="s16" d="m356.4 713c0 4.5-3.8 8.2-8.6 8.2-4.8 0-8.6-3.7-8.6-8.2 0-4.5 3.8-8.1 8.6-8.1 4.8 0 8.6 3.6 8.6 8.1z"/>
							<path id="&lt;Path&gt;" class="s1" d="m360.3 712.3h-23.7v-2.1c0-6.1 5-11.1 11.1-11.1h1.5c6.1 0 11.1 5 11.1 11.1z"/>
						</g>
						<path id="&lt;Path&gt;" class="s3" d="m289.4 705h-13.8v-29.4h13.8z"/>
						<g id="&lt;Group&gt;">
							<path id="&lt;Path&gt;" class="s16" d="m291.4 713c0 4.5-3.9 8.2-8.6 8.2-4.8 0-8.7-3.7-8.7-8.2 0-4.5 3.9-8.1 8.7-8.1 4.7 0 8.6 3.6 8.6 8.1z"/>
							<path id="&lt;Path&gt;" class="s1" d="m295.2 712.3h-23.6v-2.1c0-6.1 4.9-11.1 11-11.1h1.6c6.1 0 11 5 11 11.1z"/>
						</g>
					</g>
					<path id="&lt;Path&gt;" class="s36" d="m169.9 375h57.6l45.2 201.9-81.2-0.9c-9.9-0.3-18.1-7.7-19.4-17.4l-22.3-160.6c-1.7-12.2 7.8-23.1 20.1-23z"/>
					<path id="&lt;Path&gt;" class="s37" d="m368.5 576.9h-112.8c-9.6 0-17.5-7.8-17.5-17.5 0-9.6 7.9-17.5 17.5-17.5h112.8c9.7 0 17.5 7.9 17.5 17.5 0 9.7-7.8 17.5-17.5 17.5z"/>
					<path id="&lt;Path&gt;" class="s33" d="m262.1 345.9c-2.2 31.7 4 145.9 5.9 179.6-18.2-0.4-32.9-2-32.9-2l0.4-172.4c0-24.2 17.5-44.4 40.7-48.5 0 0-11.5 6-14.1 43.3z"/>
					<path id="&lt;Path&gt;" class="s4" d="m318.7 304.9h-50.8v-14.2l50.8 6z"/>
					<path id="&lt;Path&gt;" class="s37" d="m236.7 554.8l-23.6-164.7c-1-7.3 4.5-14.1 12.3-15.1 7.8-1 15 4.2 16 11.5l23.6 164.7c1.1 7.4-4.4 14.2-12.2 15.2-7.8 1-11.8 6.5-16.1-11.6z"/>
					<path id="&lt;Path&gt;" class="s33" d="m350 420.1l-0.8 87.8c0 0-1.9 2.1-7.5 5.1l-11.7-132.4c0 0 10.7 26.8 20 39.5z"/>
				</g>
			</g>
			<path id="&lt;Path&gt;" class="s38" d="m570.7 358.7l-5.8 32.4-4.1 22.8c-2.3 1-4.8 1.6-7.5 1.6h-55c5.2-5.4 14-14.4 23.4-24.4 14.7-15.4 31.1-32.9 38.3-41.8z"/>
		</g>
		<g id="&lt;Group&gt;">
			<path id="&lt;Path&gt;" class="s21" d="m566.6 348.3c0.8-2.9 3.4-4.8 6.3-4.8h95.8c4.3 0 7.5 4.1 6.3 8.3l-24.3 87.9c-0.3 1.1-0.8 2.1-1.4 2.9h-108.9z"/>
			<path id="&lt;Path&gt;" class="s5" d="m669.8 348.7l-24.3 87.8c-1.1 4.1-4.9 6.9-9.1 6.9h-102.1l27.2-98.3c0.8-2.8 3.4-4.8 6.3-4.8h95.7c4.4 0 7.5 4.2 6.3 8.4z"/>
			<path id="&lt;Path&gt;" class="s23" d="m664.5 352.5l-19.9 71.7-4.2 15h-101.3l4.1-15 20.8-74.9c0.8-2.7 3.2-4.5 5.9-4.5h88.7c4 0 6.9 3.9 5.9 7.7z"/>
			<g id="&lt;Group&gt;">
				<g id="&lt;Group&gt;">
					<path id="&lt;Path&gt;" class="s39" d="m604.8 354.6h-31.2l0.7-2.2h31.2z"/>
					<path id="&lt;Path&gt;" class="s7" d="m633.1 354.6h-14.8l0.7-2.2h14.7z"/>
					<path id="&lt;Path&gt;" class="s5" d="m654.4 354.6h-14.8l0.7-2.2h14.8z"/>
					<path id="&lt;Path&gt;" class="s6" d="m637.9 354.6h-3.5l0.7-2.2h3.5z"/>
					<path id="&lt;Path&gt;" class="s5" d="m616.6 354.6h-10.4l0.7-2.2h10.4z"/>
				</g>
				<g id="&lt;Group&gt;">
					<path id="&lt;Path&gt;" class="s21" d="m583.7 389.8h14.8l-0.7 2.2h-14.8z"/>
					<path id="&lt;Path&gt;" class="s8" d="m562.4 389.8h14.8l-0.7 2.2h-14.8z"/>
					<path id="&lt;Path&gt;" class="s6" d="m578.9 389.8h3.5l-0.7 2.2h-3.5z"/>
				</g>
				<g id="&lt;Group&gt;">
					<path id="&lt;Path&gt;" class="s7" d="m582.3 363.9h-11.7l0.7-2.2h11.7z"/>
					<path id="&lt;Path&gt;" class="s6" d="m610.6 363.9h-5l0.7-2.2h5z"/>
					<path id="&lt;Path&gt;" class="s7" d="m651.4 363.9h-24.5l0.7-2.2h24.5z"/>
					<path id="&lt;Path&gt;" class="s6" d="m625.2 363.9h-13.3l0.7-2.2h13.2z"/>
					<path id="&lt;Path&gt;" class="s6" d="m603.9 363.9h-20.1l0.7-2.2h20.1z"/>
				</g>
				<g id="&lt;Group&gt;">
					<path id="&lt;Path&gt;" class="s10" d="m564.5 420.1h-11.7l0.7-2.2h11.7z"/>
				</g>
				<g id="&lt;Group&gt;">
					<path id="&lt;Path&gt;" class="s21" d="m579.3 373.3h-11.7l0.7-2.2h11.7z"/>
					<path id="&lt;Path&gt;" class="s21" d="m598.4 373.3h-11.7l0.7-2.2h11.7z"/>
					<path id="&lt;Path&gt;" class="s6" d="m645.2 373.3h-20.1l0.7-2.2h20.1z"/>
				</g>
				<g id="&lt;Group&gt;">
					<path id="&lt;Path&gt;" class="s6" d="m565.4 380.4h20.1l-0.7 2.2h-20.1z"/>
				</g>
			</g>
			<path id="&lt;Path&gt;" class="s5" d="m645.9 424.2l-4.3 15h-103.9l4.3-15z"/>
			<g id="&lt;Group&gt;">
				<path id="&lt;Path&gt;" class="s5" d="m589.9 443.7h-124.4c-2.9 0-5.3-2.4-5.3-5.3 0-2.9 2.4-5.3 5.3-5.3h124.4c3 0 5.3 2.4 5.3 5.3 0 2.9-2.3 5.3-5.3 5.3z"/>
			</g>
			<path id="&lt;Path&gt;" class="s40" d="m638.9 340.3l-2.1 4.5-36.2 79.3-3.7 8.2h-39.2l3.8-8.2 36.2-79.3 2-4.5z"/>
			<path id="&lt;Path&gt;" class="s40" d="m523.8 266.2l-53.8 117.8h-57.6l53.8-117.8z"/>
			<g id="&lt;Group&gt;">
				<g id="&lt;Group&gt;">
					<path id="&lt;Path&gt;" class="s21" d="m637.1 443.3h-72c-2.9 0-5.3-2.3-5.3-5.3 0-2.9 2.4-5.2 5.3-5.2h72c2.9 0 5.3 2.3 5.3 5.2 0 3-2.4 5.3-5.3 5.3z"/>
				</g>
				<g id="&lt;Group&gt;">
					<path id="&lt;Path&gt;" class="s16" d="m611.2 439.3h-10.2v-3h10.2z"/>
					<path id="&lt;Path&gt;" class="s16" d="m597.9 439.3h-7.5v-3h7.5z"/>
				</g>
			</g>
		</g>
		<g id="&lt;Group&gt;">
			<g id="&lt;Group&gt;">
				<path id="&lt;Path&gt;" class="s41" d="m535.8 400.5v43.1h-36v-43.1c0-1.9 1.5-3.4 3.4-3.4h29.1c1.9 0 3.5 1.5 3.5 3.4z"/>
				<g id="&lt;Group&gt;">
					<path id="&lt;Path&gt;" class="s7" d="m500.2 436.2c-0.4-0.3-11.5-6.7-12.5-18.1-0.4-4.3 1.3-7 2.7-8.5 4-4 10.5-3.8 11.3-3.8l-0.3 5.3c-1.3-0.1-5.3 0.2-7.2 2.2-1 1-1.4 2.5-1.2 4.4 0.7 8.6 9.8 13.9 9.8 13.9z"/>
				</g>
			</g>
			<path id="&lt;Path&gt;" class="s7" d="m519 443.6h-19.2v-43.1c0-1.9 1.5-3.4 3.4-3.4h1.2c0 2.2 0.6 19.4 5.5 31.8 4.2 10.7 7.9 13.9 9.1 14.7z"/>
			<path id="&lt;Compound Path&gt;" fill-rule="evenodd" class="s42" d="m490.4 409.6c2.8-2.9 7-3.6 9.4-3.7v-5.4c0-1.9 1.5-3.4 3.4-3.4h1.2c0 2.2 0.6 19.4 5.5 31.8 4.2 10.7 7.9 13.9 9.1 14.7h-19.2v-7.7c-2.2-1.3-11.2-7.6-12.1-17.8-0.3-4.3 1.3-7 2.7-8.5zm2.6 8.1c0.4 5.3 4.1 9.4 6.8 11.7v-18.2c-1.8 0.1-4.2 0.7-5.6 2.1-1 1-1.4 2.5-1.2 4.4z"/>
		</g>
		<g id="&lt;Group&gt;">
			<g id="&lt;Group&gt;">
				<path id="&lt;Path&gt;" class="s43" d="m119.1 419.8l-4-0.7 9.9-56.3 4.1 0.8z"/>
				<path id="&lt;Path&gt;" class="s43" d="m127.6 379.3l-6.4-1.2 3-16.9 6.4 1.1z"/>
			</g>
			<g id="&lt;Group&gt;">
				<path id="&lt;Path&gt;" class="s44" d="m112.3 427l-4.1-0.3 4.8-57 2.5-3.6 1.6 4z"/>
			</g>
			<g id="&lt;Group&gt;">
				<path id="&lt;Path&gt;" class="s45" d="m106.6 429.9l-4.1 0.8-10.9-56.1 1.4-4.2 2.7 3.4z"/>
			</g>
			<g id="&lt;Group&gt;">
				<path id="&lt;Path&gt;" class="s46" d="m115.7 443h-17.7l-5.8-46.9h29.3z"/>
				<path id="&lt;Path&gt;" class="s47" d="m122.4 443h-17.7l-2.6-46.9h26.1z"/>
			</g>
		</g>
		<g id="&lt;Group&gt;">
			<g id="&lt;Group&gt;">
				<path id="&lt;Path&gt;" class="s37" d="m758.7 513.6c3.6 0 6.8 1.4 9.2 3.7 2.3 2.4 3.7 5.6 3.7 9.1 0 1.6-0.2 3-0.7 4.4-1.8 5-6.6 8.5-12.2 8.5h-90v-25.7z"/>
				<path id="&lt;Path&gt;" class="s42" d="m770.9 530.8c-1.8 5-6.6 8.5-12.2 8.5h-69.9v-8.5z"/>
				<path id="&lt;Path&gt;" class="s36" d="m708.5 513.5c3.5 0 6.8 1.5 9.1 3.8 2.3 2.4 3.8 5.6 3.8 9.1 0 7.2-5.8 12.9-12.9 12.9h-59.1v-25.8z"/>
				<path id="&lt;Path&gt;" class="s4" d="m705 518c2.3 0 4.3 0.9 5.8 2.4 1.5 1.5 2.5 3.6 2.5 5.8 0 4.6-3.7 8.3-8.3 8.3h-55.6v-16.5z"/>
			</g>
			<g id="&lt;Group&gt;">
				<path id="&lt;Path&gt;" class="s48" d="m757 462.3c3.5 0 6.8 1.4 9.1 3.8 2.3 2.3 3.8 5.5 3.8 9.1 0 7.1-5.8 12.9-12.9 12.9h-90v-25.8z"/>
				<path id="&lt;Path&gt;" class="s49" d="m687.4 470.9v-8.5h69.8c5.6 0 10.4 3.5 12.2 8.5z"/>
				<path id="&lt;Path&gt;" class="s50" d="m708.5 462.3c3.5 0 6.8 1.4 9.1 3.8 2.3 2.3 3.8 5.5 3.8 9.1 0 7.1-5.8 12.9-12.9 12.9h-59.1v-25.8z"/>
				<path id="&lt;Path&gt;" class="s4" d="m705 466.7c2.3 0 4.3 1 5.8 2.4 1.5 1.5 2.5 3.6 2.5 5.9 0 4.6-3.7 8.3-8.3 8.3h-55.6v-16.6z"/>
			</g>
			<g id="&lt;Group&gt;">
				<path id="&lt;Path&gt;" class="s9" d="m752.3 488.2c3.6 0 6.8 1.5 9.1 3.8q1.4 1.4 2.3 3.1c1 1.8 1.5 3.8 1.5 6 0 7.2-5.7 12.9-12.9 12.9h-90v-25.8z"/>
				<path id="&lt;Path&gt;" class="s51" d="m752.3 488.2c3.6 0 6.8 1.5 9.1 3.8q1.4 1.4 2.3 3.1h-99v-6.9z"/>
				<path id="&lt;Path&gt;" class="s51" d="m664.7 514v-6.8h99q-0.9 1.7-2.3 3.1c-2.3 2.3-5.5 3.7-9.1 3.7z"/>
				<path id="&lt;Path&gt;" class="s52" d="m692.8 488.2c3.5 0 6.7 1.5 9.1 3.8 2.3 2.4 3.8 5.6 3.8 9.1 0 7.2-5.8 12.9-12.9 12.9h-54.1v-25.8z"/>
				<path id="&lt;Path&gt;" class="s4" d="m689.3 492.7c2.3 0 4.3 0.9 5.8 2.4 1.5 1.5 2.5 3.5 2.5 5.8 0 4.6-3.7 8.3-8.3 8.3h-50.6v-16.5z"/>
			</g>
		</g>
		<g id="&lt;Group&gt;">
			<g id="&lt;Group&gt;">
				<g id="&lt;Group&gt;">
					<path id="&lt;Path&gt;" class="s16" d="m676.2 336.8c-4.3-4.6-3.9-11.7 0.8-15.8l0.6-0.5c4.7-4.1 12.1-3.8 16.4 0.8 4.3 4.6 3.9 11.7-0.8 15.9l-0.6 0.4c-4.7 4.2-12.1 3.8-16.4-0.8z"/>
					<path id="&lt;Path&gt;" class="s31" d="m685.3 359.1l-11.3 9.9-32.2-34.3 11.4-9.9c7.8-6.8 19.1-7.7 27.8-3 2.2 1.2 4.3 2.8 6.1 4.7 4.4 4.7 6.4 10.7 6.1 16.6-0.3 6-2.9 11.7-7.9 16z"/>
					<path id="&lt;Path&gt;" class="s8" d="m675.1 348.2l-11.3 9.9-22-23.4 11.4-9.9c7.8-6.8 19.1-7.7 27.8-3 1.5 3.3 2.2 6.9 2 10.4-0.3 5.9-3 11.7-7.9 16z"/>
				</g>
				<path id="&lt;Path&gt;" class="s5" d="m674.6 368.9c-3.4 3-13.5-2.1-22.6-11.5-9-9.3-13.6-19.4-10.2-22.4 2.7-2.5 9.6 0.2 16.9 6.1 1.9 1.5 3.8 3.3 5.7 5.3 2.2 2.2 4.1 4.6 5.8 6.8 5 7 7 13.3 4.4 15.7z"/>
				<path id="&lt;Path&gt;" class="s4" d="m670.2 353.2c-2.7 2.9-7.1 3.7-10.7 1.8-4.1-2.3-5.6-7.3-3.3-11.3 0.7-1.1 1.5-2 2.5-2.6 1.9 1.5 3.8 3.3 5.7 5.3 2.2 2.2 4.1 4.6 5.8 6.8z"/>
			</g>
			<path id="&lt;Path&gt;" class="s53" d="m690.8 324l12.5-10.6 59.5 39.6-29.4 94.8"/>
			<g id="&lt;Group&gt;">
				<path id="&lt;Path&gt;" class="s16" d="m709.8 313.9c0 3.9-3.2 7.1-7.3 7.1-4 0-7.3-3.2-7.3-7.1 0-3.9 3.3-7 7.3-7 4.1 0 7.3 3.1 7.3 7z"/>
				<path id="&lt;Path&gt;" class="s10" d="m706.2 313.9c0 2-1.7 3.5-3.7 3.5-2 0-3.6-1.5-3.6-3.5 0-1.9 1.6-3.5 3.6-3.5 2 0 3.7 1.6 3.7 3.5z"/>
			</g>
			<path id="&lt;Path&gt;" class="s10" d="m763 462.6h-75.7c0-8.3 6.7-15 15-15h45.6c8.4 0 15.1 6.7 15.1 15z"/>
			<path id="&lt;Path&gt;" class="s16" d="m716.6 448h-13.7v-4.2h13.7z"/>
			<g id="&lt;Group&gt;">
				<path id="&lt;Path&gt;" class="s16" d="m772.4 353.9c0 5.5-4.5 9.9-10.2 9.9-5.7 0-10.2-4.4-10.2-9.9 0-5.4 4.5-9.8 10.2-9.8 5.7 0 10.2 4.4 10.2 9.8z"/>
				<path id="&lt;Path&gt;" class="s10" d="m767.3 353.9c0 2.8-2.3 5-5.1 5-2.8 0-5.1-2.2-5.1-5 0-2.7 2.3-4.9 5.1-4.9 2.8 0 5.1 2.2 5.1 4.9z"/>
			</g>
		</g>
		<g id="&lt;Group&gt;">
			<g id="&lt;Group&gt;">
				<path id="&lt;Path&gt;" class="s54" d="m827.9 468.2c-11.1 15.1-33.4 17.6-33.4 17.6 0 0-4.2-22 6.9-37.1 11.1-15.1 33.3-17.6 33.3-17.6 0 0 4.3 22-6.8 37.1z"/>
				<path id="&lt;Path&gt;" class="s55" d="m781.3 459.2c10.2 10 9.6 27.1 9.6 27.1 0 0-17 0.8-27.2-9.3-10.2-10-9.6-27-9.6-27 0 0 17-0.9 27.2 9.2z"/>
				<path id="&lt;Path&gt;" class="s56" d="m806.5 451.6c2.1 18.6-12.6 35.5-12.6 35.5 0 0-18-13.2-20.1-31.9-2.1-18.6 12.6-35.5 12.6-35.5 0 0 18 13.3 20.1 31.9z"/>
			</g>
			<g id="&lt;Group&gt;">
				<path id="&lt;Path&gt;" class="s57" d="m805.1 538.6h-38.6l-12.6-56.3h63.9z"/>
				<path id="&lt;Path&gt;" class="s34" d="m819.7 538.6h-38.6l-5.7-56.3h57z"/>
			</g>
		</g>
	</g>
</svg>